<svg width="32" height="32" viewBox="0 0 32 32" fill="none" xmlns="http://www.w3.org/2000/svg">
<rect x="0.5" y="0.5" width="31" height="31" rx="3.5" fill="#F4F4FF"/>
<rect x="0.5" y="0.5" width="31" height="31" rx="3.5" stroke="#767AF9"/>
<g clip-path="url(#clip0_1_443)">
<path d="M18.3913 7.89062C18.1273 7.89062 17.9131 8.10063 17.9131 8.35938C17.9131 8.61813 18.1273 8.82812 18.3913 8.82812C18.6553 8.82812 18.8696 8.61813 18.8696 8.35938C18.8696 8.10063 18.6553 7.89062 18.3913 7.89062Z" fill="#5349DB"/>
<path d="M13.6086 7.89062C13.3446 7.89062 13.1304 8.10063 13.1304 8.35938C13.1304 8.61813 13.3446 8.82812 13.6086 8.82812C13.8726 8.82812 14.0869 8.61813 14.0869 8.35938C14.0869 8.10063 13.8726 7.89062 13.6086 7.89062Z" fill="#5349DB"/>
<path d="M26.384 18.01C26.7943 17.4062 27 16.653 27 16C27 15.0156 26.5538 14.1016 25.7886 13.4814C25.9579 13.0848 26.0435 12.6719 26.0435 12.25C26.0435 10.9445 25.2658 9.72813 24.1103 9.16C24.2859 7.73453 23.338 6.42766 21.9333 6.09438C21.3833 4.84844 20.1599 4 18.8696 4C17.6687 4 16.5916 4.68672 16 5.68844C15.4084 4.68672 14.3313 4 13.1304 4C11.8401 4 10.6167 4.84844 10.0672 6.09438C8.65439 6.43 7.71509 7.74297 7.89013 9.16C6.73417 9.72813 5.95652 10.9445 5.95652 12.25C5.95652 12.6719 6.04213 13.0844 6.21143 13.4814C5.44622 14.1016 5 15.0156 5 16C5 16.6562 5.20709 17.4086 5.616 18.01C5.21665 18.5627 5 19.2175 5 19.8906C5 20.7634 5.36109 21.5945 5.99957 22.2119C5.67148 24.1567 7.25404 26.125 9.30435 26.125C9.31917 26.125 9.33352 26.125 9.34787 26.1245C10.0275 27.2739 11.2896 28 12.6522 28C14.0147 28 15.341 27.1647 16 25.9614C16.659 27.1647 17.9279 28 19.3478 28C20.7678 28 21.972 27.2739 22.6521 26.1245C22.6665 26.1245 22.6808 26.125 22.6957 26.125C24.5102 26.125 26.0435 24.558 26.0435 22.7031C26.0435 22.5452 26.0291 22.383 26.0004 22.2119C26.6389 21.5945 27 20.7634 27 19.8906C27 19.2175 26.7838 18.5627 26.384 18.01ZM15.5217 11.0959C15.24 10.9361 14.9134 10.8438 14.5652 10.8438C14.3012 10.8438 14.087 11.0538 14.087 11.3125C14.087 11.5712 14.3012 11.7812 14.5652 11.7812C15.0927 11.7812 15.5217 12.2017 15.5217 12.7188V21.633C14.8201 20.853 13.7943 20.3594 12.6522 20.3594C12.3882 20.3594 12.1739 20.5694 12.1739 20.8281C12.1739 21.0869 12.3882 21.2969 12.6522 21.2969C14.2343 21.2969 15.5217 22.5588 15.5217 24.1094C15.5217 25.66 14.2075 27.0625 12.6522 27.0625C11.545 27.0625 10.5258 26.4208 10.0552 25.4275C9.96865 25.2447 9.77209 25.1364 9.56739 25.1589C9.53343 25.1627 9.49996 25.1669 9.46648 25.1716C8.10535 25.3539 6.57252 23.8436 6.98765 22.1533C7.03022 21.9798 6.96852 21.7975 6.82839 21.6836C6.27457 21.2317 5.95652 20.5783 5.95652 19.8906C5.95652 19.4655 6.07896 19.0492 6.30757 18.6845C6.881 19.1453 7.59457 19.4219 8.34783 19.4219C8.61183 19.4219 8.82609 19.2119 8.82609 18.9531C8.82609 18.6944 8.61183 18.4844 8.34783 18.4844C7.04983 18.4844 5.95652 17.3233 5.95652 16C5.95652 15.1975 6.37404 14.4587 7.07326 14.0247C7.28848 13.8911 7.35926 13.615 7.23348 13.3975C7.02113 13.03 6.91304 12.6442 6.91304 12.25C6.91304 10.9848 7.96522 9.76562 9.30435 9.76562C10.6435 9.76562 11.6957 10.9267 11.6957 12.25C11.6957 12.5087 11.9099 12.7188 12.1739 12.7188C12.4379 12.7188 12.6522 12.5087 12.6522 12.25C12.6522 10.3952 11.1189 8.82812 9.30435 8.82812C9.14413 8.82812 8.98487 8.84078 8.82752 8.86469C8.82752 8.8525 8.82609 8.84031 8.82609 8.82812C8.82609 7.78188 9.6927 6.95312 10.7391 6.95312C11.2499 6.95312 11.7306 7.14812 12.0921 7.50203C12.2791 7.68484 12.5819 7.68484 12.7684 7.50203C12.9549 7.31875 12.9549 7.02203 12.7684 6.83922C12.3322 6.41219 11.7803 6.13984 11.182 6.04938C11.6038 5.43578 12.305 4.93797 13.1304 4.93797C14.4045 4.93797 15.5217 6.09906 15.5217 7.42234V11.0964V11.0959ZM23.6522 19.4219C24.4054 19.4219 25.119 19.1453 25.6924 18.6845C25.9206 19.0492 26.0435 19.4655 26.0435 19.8906C26.0435 20.5783 25.7259 21.2317 25.1716 21.6836C25.0315 21.798 24.9698 21.9798 25.0123 22.1533C25.063 22.3595 25.0865 22.5344 25.0865 22.7027C25.0865 24.1577 23.7435 25.3337 22.533 25.1716C22.4996 25.1669 22.4656 25.1627 22.4321 25.1589C22.227 25.1364 22.0309 25.2442 21.9443 25.4275C21.4742 26.4208 20.4545 27.0625 19.3473 27.0625C17.792 27.0625 16.4778 25.7102 16.4778 24.1094C16.4778 22.5086 17.7653 21.2969 19.3473 21.2969C19.6113 21.2969 19.8256 21.0869 19.8256 20.8281C19.8256 20.5694 19.6113 20.3594 19.3473 20.3594C18.2053 20.3594 17.1794 20.853 16.4778 21.633V12.7188C16.4778 12.2017 16.9068 11.7812 17.4343 11.7812C17.6983 11.7812 17.9126 11.5712 17.9126 11.3125C17.9126 11.0538 17.6983 10.8438 17.4343 10.8438C17.0861 10.8438 16.7595 10.9361 16.4778 11.0959V7.42188C16.4778 6.09859 17.595 4.9375 18.8691 4.9375C19.6946 4.9375 20.3957 5.43531 20.8175 6.04891C20.2197 6.13937 19.6678 6.41172 19.2311 6.83875C19.0441 7.02156 19.0441 7.31828 19.2311 7.50156C19.4177 7.68484 19.7209 7.68484 19.9074 7.50156C20.2694 7.14766 20.7496 6.95219 21.2604 6.95219C22.3121 6.95219 23.1734 7.78609 23.1734 8.82719C23.1734 8.83938 23.1725 8.85156 23.1725 8.86375C23.0147 8.83984 22.8554 8.82719 22.6952 8.82719C20.8807 8.82719 19.3473 10.3942 19.3473 12.2491C19.3473 12.5078 19.5616 12.7178 19.8256 12.7178C20.0896 12.7178 20.3039 12.5078 20.3039 12.2491C20.3039 10.9258 21.4211 9.76469 22.6952 9.76469C24.0333 9.76469 25.0865 10.9834 25.0865 12.2491C25.0865 12.6428 24.9789 13.0291 24.766 13.3966C24.6403 13.6141 24.7106 13.8902 24.9263 14.0238C25.6255 14.4578 26.043 15.1966 26.043 15.9991C26.043 17.327 24.9459 18.4834 23.6517 18.4834C23.3877 18.4834 23.1734 18.6934 23.1734 18.9522C23.1734 19.2109 23.3877 19.4209 23.6517 19.4209L23.6522 19.4219Z" fill="#5349DB"/>
<path d="M14.4431 14.0336C14.2671 13.8405 13.9648 13.8241 13.7678 13.9966C12.234 15.3409 9.78245 14.2666 9.78245 12.2495C9.78245 11.9908 9.56819 11.7808 9.30419 11.7808C9.04019 11.7808 8.82593 11.9908 8.82593 12.2495C8.82593 13.8766 10.0412 15.2308 11.6285 15.4867C11.4444 16.0553 10.9011 16.4683 10.2607 16.4683C9.99671 16.4683 9.78245 16.6783 9.78245 16.937C9.78245 17.1958 9.99671 17.4058 10.2607 17.4058C11.4258 17.4058 12.3981 16.585 12.609 15.5027C13.2742 15.4173 13.9003 15.1384 14.4058 14.695C14.6028 14.5225 14.6196 14.2262 14.4436 14.0331L14.4431 14.0336Z" fill="#5349DB"/>
<path d="M9.30419 22.2344C9.04019 22.2344 8.82593 22.4444 8.82593 22.7031C8.82593 22.9619 9.04019 23.1719 9.30419 23.1719C10.5783 23.1719 11.6955 24.333 11.6955 25.6562C11.6955 25.915 11.9098 26.125 12.1738 26.125C12.4378 26.125 12.652 25.915 12.652 25.6562C12.652 23.8014 11.1187 22.2344 9.30419 22.2344Z" fill="#5349DB"/>
<path d="M13.1305 18.4844C11.5097 18.4844 10.1184 19.3553 9.38572 20.6223C9.25564 20.8473 9.33599 21.1337 9.56603 21.2612C9.79607 21.3887 10.0878 21.31 10.2179 21.0845C10.7885 20.0973 11.8717 19.4219 13.1305 19.4219C13.3945 19.4219 13.6088 19.2119 13.6088 18.9531C13.6088 18.6944 13.3945 18.4844 13.1305 18.4844Z" fill="#5349DB"/>
<path d="M21.7392 16.4688C21.0988 16.4688 20.5555 16.0553 20.3714 15.4872C21.9587 15.2312 23.174 13.8775 23.174 12.25C23.174 11.9913 22.9597 11.7812 22.6957 11.7812C22.4317 11.7812 22.2175 11.9913 22.2175 12.25C22.2175 13.5423 21.1447 14.5938 19.8262 14.5938C19.2369 14.5938 18.6712 14.3819 18.2321 13.997C18.0355 13.8245 17.7328 13.8409 17.5568 14.0341C17.3808 14.2272 17.3975 14.5234 17.5946 14.6959C18.1001 15.1394 18.7262 15.4183 19.3914 15.5036C19.6023 16.5859 20.5746 17.4067 21.7397 17.4067C22.0037 17.4067 22.2179 17.1967 22.2179 16.938C22.2179 16.6792 22.0037 16.4692 21.7397 16.4692L21.7392 16.4688Z" fill="#5349DB"/>
<path d="M22.6957 22.2344C20.8812 22.2344 19.3479 23.8014 19.3479 25.6562C19.3479 25.915 19.5622 26.125 19.8262 26.125C20.0902 26.125 20.3044 25.915 20.3044 25.6562C20.3044 24.333 21.4216 23.1719 22.6957 23.1719C22.9597 23.1719 23.174 22.9619 23.174 22.7031C23.174 22.4444 22.9597 22.2344 22.6957 22.2344Z" fill="#5349DB"/>
<path d="M22.6139 20.6223C21.8831 19.3586 20.4933 18.4844 18.8691 18.4844C18.6051 18.4844 18.3909 18.6944 18.3909 18.9531C18.3909 19.2119 18.6051 19.4219 18.8691 19.4219C20.127 19.4219 21.2107 20.0973 21.7817 21.0845C21.9123 21.31 22.204 21.3887 22.4336 21.2612C22.6632 21.1337 22.744 20.8473 22.6139 20.6223Z" fill="#5349DB"/>
</g>
<defs>
<clipPath id="clip0_1_443">
<rect width="22" height="24" fill="white" transform="translate(5 4)"/>
</clipPath>
</defs>
</svg>
