<svg width="40" height="40" viewBox="0 0 40 40" fill="none" xmlns="http://www.w3.org/2000/svg">
<rect x="0.5" y="0.5" width="39" height="39" rx="3.5" fill="#F0F1FF" stroke="#767AF9"/>
<g clip-path="url(#clip0_1_573)">
<path d="M9.317 32C9.16213 31.9995 9.01836 31.92 8.93563 31.7891C8.85315 31.6582 8.84306 31.4943 8.9094 31.3543L13.7411 21.2498H8.94799C8.79312 21.2498 8.6491 21.1703 8.56637 21.0394C8.48364 20.9083 8.4738 20.7441 8.54039 20.6041L14.4274 8.25828C14.502 8.10064 14.6607 8 14.8352 8H21.8994C22.0585 8 22.2061 8.08374 22.2876 8.22045C22.3693 8.35715 22.3728 8.5269 22.2971 8.66689L17.356 17.8152H21.9609C22.142 17.8149 22.306 17.9226 22.3773 18.0894C22.4487 18.2561 22.4134 18.449 22.2881 18.5799L9.64389 31.8597C9.55863 31.9493 9.44059 32 9.317 32ZM9.66457 20.3458H14.4582C14.613 20.3463 14.757 20.4257 14.8398 20.5567C14.9223 20.6876 14.9323 20.8515 14.866 20.9915L10.9537 29.1733L20.9066 18.7192H16.5978C16.4386 18.7192 16.2911 18.6354 16.2096 18.4987C16.1279 18.362 16.1244 18.1923 16.2 18.0523L21.1417 8.90499H15.1195L9.66457 20.3458ZM22.9032 30.8029C22.7486 30.8024 22.6046 30.7229 22.5221 30.592C22.4394 30.4611 22.4296 30.2972 22.4956 30.1572L25.483 23.9093H22.6677C22.5108 23.9095 22.365 23.8285 22.2825 23.6951C22.2 23.5617 22.1925 23.3952 22.2626 23.255L26.2231 15.3386C26.2995 15.1855 26.4561 15.0889 26.6271 15.0889H31.1571C31.3183 15.0889 31.4671 15.1744 31.5481 15.3136C31.6291 15.4528 31.6298 15.6246 31.5501 15.7643L28.3498 21.3827H31.0103C31.1912 21.3824 31.3546 21.4901 31.4258 21.6564C31.4971 21.8226 31.4626 22.0153 31.3377 22.1464L23.2296 30.6627C23.1444 30.7519 23.0263 30.8026 22.903 30.8029H22.9032ZM23.3984 23.0053H26.1999C26.3545 23.0058 26.4985 23.0852 26.5812 23.2161C26.6637 23.347 26.6738 23.511 26.6075 23.651L24.5399 27.9762L29.957 22.2867H27.5722C27.4113 22.2867 27.2622 22.2009 27.1815 22.0617C27.1006 21.9225 27.0998 21.7507 27.1795 21.611L30.3795 15.9931H26.9063L23.3984 23.0053Z" fill="#6A61F1"/>
</g>
<defs>
<clipPath id="clip0_1_573">
<rect width="24" height="24" fill="white" transform="translate(8 8)"/>
</clipPath>
</defs>
</svg>
