<svg width="40" height="40" viewBox="0 0 40 40" fill="none" xmlns="http://www.w3.org/2000/svg">
<rect x="0.5" y="0.5" width="39" height="39" rx="3.5" fill="#F0F1FF" stroke="#767AF9"/>
<g clip-path="url(#clip0_1_487)">
<path d="M26.3507 8.61483C24.651 6.92707 22.4006 6.00006 20.0068 6.00006C19.9852 6.00006 19.963 6.00012 19.9414 6.00028C17.6043 6.01674 15.3916 6.93237 13.7108 8.57852C12.0296 10.225 11.0686 12.4182 11.0052 14.7539C10.9389 17.188 11.8305 19.4934 13.5156 21.2454C14.8426 22.6251 15.5734 24.4601 15.5734 26.4126V30.1687C15.5734 30.9403 16.1092 31.5889 16.8281 31.7628V32.2637C16.8281 33.2211 17.607 34 18.5644 34H21.4355C22.3929 34 23.1719 33.2211 23.1719 32.2637V31.7657C23.8971 31.5963 24.439 30.9448 24.439 30.1687V26.4127C24.439 24.4857 25.1899 22.6295 26.5534 21.186C28.138 19.5083 29.0107 17.313 29.0107 15.0045C29.0107 12.5873 28.0661 10.3181 26.3507 8.61483ZM22.0782 32.2637C22.0782 32.6181 21.7899 32.9063 21.4356 32.9063H18.5645C18.2102 32.9063 17.9219 32.6181 17.9219 32.2637V31.8091H22.0782V32.2637ZM23.3453 30.1687C23.3453 30.4701 23.1001 30.7154 22.7986 30.7154H22.625H17.375H17.2139C16.9124 30.7154 16.6672 30.4701 16.6672 30.1687V27.0583H23.3453V30.1687ZM19.1472 25.9646V19.0473H20.8509V25.9645H19.1472V25.9646ZM25.7584 20.4349C24.3079 21.9705 23.4649 23.9192 23.3571 25.9645H21.9447V19.0473H22.4362C23.3103 19.0473 24.0215 18.3361 24.0215 17.462V17.3772C24.0215 16.503 23.3103 15.7919 22.4362 15.7919C21.5621 15.7919 20.8509 16.503 20.8509 17.3772V17.9535H19.1472V17.3772C19.1472 16.503 18.436 15.7919 17.5619 15.7919H17.4542C16.58 15.7919 15.8689 16.503 15.8689 17.3772V17.462C15.8689 18.3361 16.58 19.0473 17.4542 19.0473H18.0534V25.9645H16.656C16.5516 23.8961 15.7257 21.9653 14.304 20.4872C12.8236 18.948 12.0403 16.9225 12.0985 14.7837C12.213 10.5733 15.7347 7.12373 19.9491 7.09398C22.0761 7.07905 24.0733 7.89476 25.5801 9.39096C27.0872 10.8873 27.917 12.881 27.917 15.0045C27.917 17.0327 27.1504 18.9612 25.7584 20.4349ZM21.9447 17.9535V17.3772C21.9447 17.1061 22.1652 16.8856 22.4362 16.8856C22.7073 16.8856 22.9278 17.1062 22.9278 17.3772V17.462C22.9278 17.733 22.7073 17.9535 22.4362 17.9535H21.9447ZM18.0534 17.3772V17.9535H17.4541C17.1831 17.9535 16.9626 17.733 16.9626 17.462V17.3772C16.9626 17.1061 17.1831 16.8856 17.4541 16.8856H17.5619C17.8329 16.8856 18.0534 17.1062 18.0534 17.3772Z" fill="#6A61F1"/>
<path d="M25.8683 12.6371C25.3985 11.4709 24.5995 10.4783 23.5578 9.76687C22.49 9.03761 21.2383 8.65698 19.9413 8.66612C19.6392 8.66825 19.3961 8.91483 19.3982 9.21687C19.4003 9.5176 19.6448 9.75987 19.945 9.75987C19.9463 9.75987 19.9477 9.75987 19.9489 9.75987C19.9618 9.75981 19.9743 9.75976 19.9871 9.75976C22.1406 9.75976 24.0483 11.0463 24.8538 13.0458C24.9397 13.259 25.1447 13.3885 25.3612 13.3885C25.4293 13.3885 25.4985 13.3757 25.5654 13.3487C25.8455 13.2359 25.9812 12.9172 25.8683 12.6371Z" fill="#6A61F1"/>
<path d="M26.1654 14.6177C26.0637 14.516 25.9226 14.4575 25.7788 14.4575C25.635 14.4575 25.4939 14.516 25.3922 14.6177C25.2899 14.7194 25.2319 14.8605 25.2319 15.0043C25.2319 15.1487 25.2899 15.2893 25.3922 15.391C25.4939 15.4932 25.6344 15.5512 25.7788 15.5512C25.9226 15.5512 26.0637 15.4932 26.1654 15.391C26.2671 15.2893 26.3257 15.1487 26.3257 15.0043C26.3257 14.8605 26.2672 14.7194 26.1654 14.6177Z" fill="#6A61F1"/>
<path d="M31.3985 8.72395C31.1849 8.51039 30.8388 8.51039 30.6251 8.72395L29.6062 9.74283C29.3927 9.95639 29.3927 10.3027 29.6062 10.5163C29.713 10.6231 29.853 10.6765 29.993 10.6765C30.133 10.6765 30.2729 10.6231 30.3797 10.5163L31.3985 9.49739C31.6121 9.28384 31.6121 8.93756 31.3985 8.72395Z" fill="#6A61F1"/>
<path d="M31.3985 20.5118L30.3797 19.4929C30.1661 19.2793 29.8199 19.2793 29.6062 19.4929C29.3927 19.7064 29.3927 20.0527 29.6062 20.2663L30.6251 21.2851C30.7319 21.3919 30.8718 21.4453 31.0118 21.4453C31.1517 21.4453 31.2917 21.3919 31.3985 21.2851C31.612 21.0716 31.612 20.7253 31.3985 20.5118Z" fill="#6A61F1"/>
<path d="M33.4532 14.4577H32.0122C31.7102 14.4577 31.4653 14.7025 31.4653 15.0046C31.4653 15.3066 31.7102 15.5515 32.0122 15.5515H33.4532C33.7552 15.5515 34 15.3066 34 15.0046C34 14.7025 33.7552 14.4577 33.4532 14.4577Z" fill="#6A61F1"/>
<path d="M10.3938 9.74289L9.37502 8.72401C9.16141 8.51045 8.81524 8.51045 8.60157 8.72401C8.38802 8.93756 8.38802 9.28384 8.60157 9.49745L9.62045 10.5163C9.72726 10.6231 9.86721 10.6765 10.0072 10.6765C10.1471 10.6765 10.287 10.6231 10.3938 10.5163C10.6074 10.3027 10.6074 9.9565 10.3938 9.74289Z" fill="#6A61F1"/>
<path d="M10.3938 19.4928C10.1803 19.2792 9.83406 19.2792 9.62045 19.4928L8.60157 20.5118C8.38802 20.7253 8.38802 21.0716 8.60157 21.2852C8.70838 21.392 8.84832 21.4454 8.98827 21.4454C9.12821 21.4454 9.26816 21.3919 9.37496 21.2852L10.3938 20.2663C10.6074 20.0527 10.6074 19.7065 10.3938 19.4928Z" fill="#6A61F1"/>
<path d="M7.98784 14.4577H6.54688C6.24489 14.4577 6 14.7025 6 15.0046C6 15.3066 6.24489 15.5515 6.54688 15.5515H7.98784C8.28982 15.5515 8.53471 15.3066 8.53471 15.0046C8.53471 14.7025 8.28982 14.4577 7.98784 14.4577Z" fill="#6A61F1"/>
</g>
<defs>
<clipPath id="clip0_1_487">
<rect width="28" height="28" fill="white" transform="translate(6 6)"/>
</clipPath>
</defs>
</svg>
