<svg width="32" height="32" viewBox="0 0 32 32" fill="none" xmlns="http://www.w3.org/2000/svg">
<rect x="0.5" y="0.5" width="31" height="31" rx="3.5" fill="#F4F4FF"/>
<rect x="0.5" y="0.5" width="31" height="31" rx="3.5" stroke="#767AF9"/>
<g clip-path="url(#clip0_1_460)">
<path d="M26.8108 25.8996L24.2204 23.3086C26.0168 21.2929 26.9998 18.7221 26.9998 15.9996C26.9998 13.8816 26.4039 11.8471 25.2722 10.0798L26.8108 8.54105C26.9689 8.38293 27.0338 8.15434 26.9822 7.93734C26.9307 7.72035 26.7708 7.54461 26.5586 7.47414L25.0341 6.96582L24.5258 5.44086C24.455 5.22902 24.2797 5.06875 24.0622 5.01719C23.8448 4.96605 23.6163 5.03094 23.4586 5.18863L21.9199 6.72777C20.1523 5.59598 18.1174 5 16.0001 5C13.062 5 10.2997 6.14426 8.22231 8.2218C6.14489 10.2993 5.0007 13.0618 5.0007 16C5.0007 18.7225 5.98377 21.2933 7.78019 23.309L5.18932 25.9C4.93754 26.1518 4.93754 26.56 5.18932 26.8114C5.31522 26.9373 5.48021 27 5.6452 27C5.81019 27 5.97518 26.9373 6.10107 26.8114L8.69193 24.2204C10.7075 26.0173 13.2781 27 16.0005 27C18.7228 27 21.2935 26.0169 23.309 24.2204L25.8999 26.8114C26.0258 26.9373 26.1908 27 26.3558 27C26.5208 27 26.6858 26.9373 26.8117 26.8114C27.0634 26.5596 27.0634 26.1518 26.8117 25.9L26.8108 25.8996ZM23.6326 6.83777L23.9127 7.67867C23.9767 7.87117 24.128 8.02242 24.32 8.08645L25.1613 8.36703L23.7396 9.78887L22.5928 9.40645L22.2104 8.25961L23.6322 6.83777H23.6326ZM18.8075 16C18.8075 17.5477 17.5481 18.8071 16.0001 18.8071C14.452 18.8071 13.1931 17.5477 13.1931 16C13.1931 14.4523 14.4524 13.1929 16.0001 13.1929C16.541 13.1929 17.0463 13.3471 17.4755 13.6131L15.5446 15.5445C15.2928 15.7963 15.2928 16.2045 15.5446 16.4559C15.6705 16.5818 15.8355 16.6445 16.0005 16.6445C16.1655 16.6445 16.3305 16.5818 16.4564 16.4559L18.3877 14.5249C18.6541 14.9537 18.8083 15.4595 18.8083 16.0004L18.8075 16ZM18.4036 12.685C17.7282 12.1938 16.8976 11.9038 16.0001 11.9038C13.7413 11.9038 11.9041 13.7416 11.9041 16C11.9041 18.2584 13.7418 20.0962 16.0001 20.0962C18.2584 20.0962 20.0965 18.2584 20.0965 16C20.0965 15.1028 19.8064 14.2722 19.3149 13.5963L20.8557 12.0555C21.7322 13.1327 22.2589 14.506 22.2589 16C22.2589 19.4513 19.4511 22.2593 16.0001 22.2593C12.549 22.2593 9.7416 19.4513 9.7416 16C9.7416 12.5487 12.549 9.74074 16.0001 9.74074C17.494 9.74074 18.8672 10.2671 19.9444 11.1441L18.4036 12.685ZM6.28969 16C6.28969 10.6452 10.6456 6.28906 16.0001 6.28906C17.7746 6.28906 19.4829 6.76258 20.9854 7.66449C20.8381 7.83551 20.7899 8.0727 20.8621 8.28926L21.3463 9.7416L20.8591 10.2289C19.5452 9.1207 17.8493 8.45168 16.0001 8.45168C11.8383 8.45168 8.45261 11.8376 8.45261 16C8.45261 20.1624 11.8383 23.5483 16.0001 23.5483C20.1618 23.5483 23.5479 20.1624 23.5479 16C23.5479 14.1506 22.879 12.4546 21.7709 11.1407L22.2581 10.6534L23.7108 11.1377C23.7774 11.16 23.8461 11.1707 23.9144 11.1707C24.067 11.1707 24.2169 11.1157 24.3351 11.0139C25.2374 12.517 25.7109 14.2254 25.7109 16C25.7109 21.3548 21.3549 25.7109 16.0005 25.7109C10.646 25.7109 6.28969 21.3548 6.28969 16Z" fill="#5349DB"/>
</g>
<defs>
<clipPath id="clip0_1_460">
<rect width="24" height="24" fill="white" transform="translate(4 4)"/>
</clipPath>
</defs>
</svg>
