<svg width="40" height="40" viewBox="0 0 40 40" fill="none" xmlns="http://www.w3.org/2000/svg">
<rect x="0.5" y="0.5" width="39" height="39" rx="3.5" fill="#F0F1FF" stroke="#767AF9"/>
<path d="M17.4639 7.25C19.9855 6.74842 22.5993 7.00544 24.9746 7.98926C27.35 8.9732 29.3811 10.6395 30.8096 12.7773C32.238 14.9152 33 17.4289 33 20C32.996 23.4466 31.6256 26.7514 29.1885 29.1885C26.7514 31.6256 23.4466 32.996 20 33C17.4289 33 14.9152 32.238 12.7773 30.8096C10.6395 29.3811 8.9732 27.35 7.98926 24.9746C7.00544 22.5993 6.74842 19.9855 7.25 17.4639C7.75161 14.9421 8.98954 12.6257 10.8076 10.8076C12.6257 8.98954 14.9421 7.75161 17.4639 7.25ZM20 9C17.8245 9 15.6976 9.64487 13.8887 10.8535C12.0798 12.0622 10.6695 13.7802 9.83691 15.79C9.00442 17.7999 8.78665 20.0119 9.21094 22.1455C9.63537 24.2793 10.6833 26.2399 12.2217 27.7783C13.7601 29.3167 15.7207 30.3646 17.8545 30.7891C18.8985 30.9967 19.9612 31.0488 21.0098 30.9521C18.4568 30.7187 16.053 29.6018 14.2256 27.7744C12.1635 25.7123 11.0034 22.9163 11 20C11.0001 17.6133 11.9482 15.3245 13.6357 13.6367C15.3236 11.9489 17.6131 11 20 11C22.3869 11 24.6764 11.9489 26.3643 13.6367C28.0518 15.3245 28.9999 17.6133 29 20C29 21.8565 28.2629 23.6375 26.9502 24.9502C25.6374 26.2629 23.8565 27 22 27C20.1435 27 18.3626 26.2629 17.0498 24.9502C15.7371 23.6375 15 21.8565 15 20C15.0001 18.674 15.5272 17.4025 16.4648 16.4648C17.4025 15.5272 18.674 15 20 15C21.326 15 22.5975 15.5272 23.5352 16.4648C24.4728 17.4025 24.9999 18.674 25 20C25 20.7956 24.6836 21.5585 24.1211 22.1211C23.5585 22.6837 22.7956 23 22 23C21.2044 23 20.4415 22.6837 19.8789 22.1211C19.3164 21.5585 19 20.7956 19 20C19.0001 19.7349 19.1055 19.4804 19.293 19.293C19.4805 19.1055 19.7348 19 20 19C20.2652 19 20.5195 19.1055 20.707 19.293C20.8711 19.4571 20.9724 19.6725 20.9951 19.9014L21.0049 20.0986C21.0275 20.3277 21.1288 20.5428 21.293 20.707C21.4805 20.8946 21.7348 21 22 21C22.2652 21 22.5195 20.8946 22.707 20.707C22.8945 20.5195 23 20.2652 23 20C22.9999 19.2044 22.6836 18.4415 22.1211 17.8789C21.5585 17.3164 20.7956 17 20 17C19.2044 17 18.4415 17.3164 17.8789 17.8789C17.3164 18.4415 17.0001 19.2044 17 20C17 21.3261 17.5272 22.5985 18.4648 23.5361C19.4025 24.4736 20.6741 25 22 25C23.3259 25 24.5975 24.4736 25.5352 23.5361C26.4728 22.5985 27 21.3261 27 20C26.9999 18.1437 26.2627 16.3634 24.9502 15.0508C23.6374 13.738 21.8565 13 20 13C18.1435 13 16.3626 13.738 15.0498 15.0508C13.7373 16.3634 13.0001 18.1437 13 20C13 22.3869 13.948 24.6764 15.6357 26.3643C17.3236 28.0521 19.6131 29 22 29C24.3869 29 26.6764 28.0521 28.3643 26.3643C29.9466 24.7819 30.879 22.6708 30.9893 20.4463L31 20C30.9966 17.0837 29.8366 14.2877 27.7744 12.2256C25.7123 10.1634 22.9163 9.00344 20 9Z" fill="#6A61F1"/>
<path d="M17.4639 7.25L17.3858 6.85769V6.85769L17.4639 7.25ZM24.9746 7.98926L25.1277 7.61971L25.1277 7.6197L24.9746 7.98926ZM30.8096 12.7773L31.1422 12.5551V12.5551L30.8096 12.7773ZM33 20L33.4 20.0005V20H33ZM20 33V33.4H20.0005L20 33ZM12.7773 30.8096L12.5551 31.1422H12.5551L12.7773 30.8096ZM7.98926 24.9746L7.6197 25.1277L7.61971 25.1277L7.98926 24.9746ZM7.25 17.4639L6.85769 17.3858H6.85769L7.25 17.4639ZM10.8076 10.8076L10.5248 10.5248L10.8076 10.8076ZM20 9L20.0005 8.6H20V9ZM13.8887 10.8535L13.6664 10.5209L13.6664 10.5209L13.8887 10.8535ZM9.83691 15.79L9.46737 15.637L9.46736 15.637L9.83691 15.79ZM9.21094 22.1455L8.81862 22.2235L8.81862 22.2235L9.21094 22.1455ZM12.2217 27.7783L11.9388 28.0612L12.2217 27.7783ZM17.8545 30.7891L17.7765 31.1814L17.7765 31.1814L17.8545 30.7891ZM21.0098 30.9521L21.0465 31.3505L21.0462 30.5538L21.0098 30.9521ZM14.2256 27.7744L13.9427 28.0573L13.9427 28.0573L14.2256 27.7744ZM11 20L10.6 20L10.6 20.0005L11 20ZM13.6357 13.6367L13.3529 13.3539L13.3529 13.3539L13.6357 13.6367ZM20 11V10.6V11ZM26.3643 13.6367L26.6471 13.3539L26.6471 13.3539L26.3643 13.6367ZM29 20H29.4V20L29 20ZM26.9502 24.9502L27.233 25.233L27.233 25.233L26.9502 24.9502ZM22 27V27.4V27ZM17.0498 24.9502L16.767 25.233L16.767 25.233L17.0498 24.9502ZM15 20L14.6 20V20H15ZM16.4648 16.4648L16.182 16.182L16.182 16.182L16.4648 16.4648ZM20 15V14.6V15ZM23.5352 16.4648L23.818 16.182L23.818 16.182L23.5352 16.4648ZM25 20H25.4V20L25 20ZM24.1211 22.1211L24.4039 22.4039L24.404 22.4039L24.1211 22.1211ZM22 23V23.4V23ZM19.8789 22.1211L19.596 22.4039L19.5961 22.4039L19.8789 22.1211ZM19 20L18.6 19.9999V20H19ZM19.293 19.293L19.0102 19.0101L19.0101 19.0101L19.293 19.293ZM20 19L20 18.6H20V19ZM20.707 19.293L20.9899 19.0101L20.9898 19.0101L20.707 19.293ZM20.9951 19.9014L21.3946 19.8816L21.3941 19.8717L21.3932 19.8618L20.9951 19.9014ZM21.0049 20.0986L20.6054 20.1184L20.6059 20.1282L20.6068 20.138L21.0049 20.0986ZM21.293 20.707L21.0101 20.9898L21.0101 20.9899L21.293 20.707ZM22 21V21.4H22L22 21ZM22.707 20.707L22.9899 20.9899L22.9899 20.9898L22.707 20.707ZM23 20H23.4V20L23 20ZM22.1211 17.8789L22.4039 17.5961L22.4039 17.596L22.1211 17.8789ZM20 17V16.6V17ZM17.8789 17.8789L17.5961 17.596L17.5961 17.5961L17.8789 17.8789ZM17 20L16.6 20V20H17ZM18.4648 23.5361L18.182 23.819L18.182 23.819L18.4648 23.5361ZM22 25V25.4V25ZM25.5352 23.5361L25.818 23.819L25.818 23.819L25.5352 23.5361ZM27 20H27.4V20L27 20ZM24.9502 15.0508L25.2331 14.768L25.233 14.7679L24.9502 15.0508ZM20 13V12.6V13ZM15.0498 15.0508L14.767 14.7679L14.7669 14.768L15.0498 15.0508ZM13 20L12.6 20V20H13ZM15.6357 26.3643L15.3529 26.6471L15.3529 26.6471L15.6357 26.3643ZM22 29V29.4V29ZM28.3643 26.3643L28.6471 26.6471L28.6471 26.6471L28.3643 26.3643ZM30.9893 20.4463L31.3889 20.4661L31.3891 20.4559L30.9893 20.4463ZM31 20L31.4 20.0096L31.4 19.9995L31 20ZM27.7744 12.2256L28.0573 11.9427L27.7744 12.2256ZM17.4639 7.25L17.5419 7.64231C19.986 7.15616 22.5193 7.40528 24.8215 8.35881L24.9746 7.98926L25.1277 7.6197C22.6792 6.60559 19.985 6.34068 17.3858 6.85769L17.4639 7.25ZM24.9746 7.98926L24.8215 8.35881C27.1239 9.31249 29.0925 10.9276 30.477 12.9996L30.8096 12.7773L31.1422 12.5551C29.6697 10.3515 27.5762 8.6339 25.1277 7.61971L24.9746 7.98926ZM30.8096 12.7773L30.477 12.9996C31.8614 15.0716 32.6 17.5079 32.6 20H33H33.4C33.4 17.3498 32.6146 14.7588 31.1422 12.5551L30.8096 12.7773ZM33 20L32.6 19.9995C32.5962 23.3403 31.2678 26.5435 28.9056 28.9056L29.1885 29.1885L29.4713 29.4713C31.9834 26.9593 33.3959 23.5529 33.4 20.0005L33 20ZM29.1885 29.1885L28.9056 28.9056C26.5435 31.2678 23.3403 32.5962 19.9995 32.6L20 33L20.0005 33.4C23.5529 33.3959 26.9593 31.9834 29.4713 29.4713L29.1885 29.1885ZM20 33V32.6C17.5079 32.6 15.0716 31.8614 12.9996 30.477L12.7773 30.8096L12.5551 31.1422C14.7588 32.6146 17.3498 33.4 20 33.4V33ZM12.7773 30.8096L12.9996 30.477C10.9276 29.0925 9.31249 27.1239 8.35881 24.8215L7.98926 24.9746L7.61971 25.1277C8.6339 27.5762 10.3515 29.6697 12.5551 31.1422L12.7773 30.8096ZM7.98926 24.9746L8.35881 24.8215C7.40528 22.5193 7.15616 19.986 7.64231 17.5419L7.25 17.4639L6.85769 17.3858C6.34068 19.985 6.60559 22.6792 7.6197 25.1277L7.98926 24.9746ZM7.25 17.4639L7.64231 17.5419C8.12849 15.0977 9.32833 12.8526 11.0905 11.0905L10.8076 10.8076L10.5248 10.5248C8.65074 12.3988 7.37472 14.7865 6.85769 17.3858L7.25 17.4639ZM10.8076 10.8076L11.0905 11.0905C12.8526 9.32833 15.0977 8.12849 17.5419 7.64231L17.4639 7.25L17.3858 6.85769C14.7865 7.37472 12.3988 8.65074 10.5248 10.5248L10.8076 10.8076ZM20 9V8.6C17.7454 8.6 15.5412 9.26831 13.6664 10.5209L13.8887 10.8535L14.1109 11.1861C15.854 10.0214 17.9035 9.4 20 9.4V9ZM13.8887 10.8535L13.6664 10.5209C11.7918 11.7735 10.3302 13.554 9.46737 15.637L9.83691 15.79L10.2065 15.9431C11.0087 14.0064 12.3678 12.3508 14.1109 11.1861L13.8887 10.8535ZM9.83691 15.79L9.46736 15.637C8.60459 17.7199 8.3789 20.0123 8.81862 22.2235L9.21094 22.1455L9.60326 22.0675C9.19439 20.0114 9.40425 17.8798 10.2065 15.9431L9.83691 15.79ZM9.21094 22.1455L8.81862 22.2235C9.25849 24.4349 10.3445 26.4668 11.9388 28.0612L12.2217 27.7783L12.5045 27.4955C11.0221 26.013 10.0123 24.1237 9.60325 22.0675L9.21094 22.1455ZM12.2217 27.7783L11.9388 28.0612C13.5332 29.6555 15.5651 30.7415 17.7765 31.1814L17.8545 30.7891L17.9325 30.3967C15.8763 29.9877 13.987 28.9779 12.5045 27.4955L12.2217 27.7783ZM17.8545 30.7891L17.7765 31.1814C18.8589 31.3966 19.9602 31.4506 21.0465 31.3505L21.0098 30.9521L20.973 30.5538C19.9621 30.647 18.9382 30.5967 17.9325 30.3967L17.8545 30.7891ZM21.0098 30.9521L21.0462 30.5538C18.5857 30.3288 16.2693 29.2524 14.5084 27.4916L14.2256 27.7744L13.9427 28.0573C15.8367 29.9512 18.3279 31.1085 20.9733 31.3505L21.0098 30.9521ZM14.2256 27.7744L14.5084 27.4916C12.5212 25.5043 11.4033 22.8099 11.4 19.9995L11 20L10.6 20.0005C10.6036 23.0227 11.8058 25.9202 13.9427 28.0573L14.2256 27.7744ZM11 20L11.4 20C11.4001 17.7194 12.3061 15.5323 13.9186 13.9195L13.6357 13.6367L13.3529 13.3539C11.5903 15.1166 10.6001 17.5072 10.6 20L11 20ZM13.6357 13.6367L13.9186 13.9196C15.5314 12.3067 17.7192 11.4 20 11.4V11V10.6C17.5069 10.6 15.1157 11.5911 13.3529 13.3539L13.6357 13.6367ZM20 11V11.4C22.2808 11.4 24.4686 12.3067 26.0814 13.9196L26.3643 13.6367L26.6471 13.3539C24.8843 11.5911 22.4931 10.6 20 10.6V11ZM26.3643 13.6367L26.0814 13.9195C27.6939 15.5323 28.5999 17.7194 28.6 20L29 20L29.4 20C29.3999 17.5072 28.4097 15.1166 26.6471 13.3539L26.3643 13.6367ZM29 20H28.6C28.6 21.7505 27.905 23.4297 26.6673 24.6674L26.9502 24.9502L27.233 25.233C28.6208 23.8452 29.4 21.9625 29.4 20H29ZM26.9502 24.9502L26.6674 24.6674C25.4297 25.905 23.7505 26.6 22 26.6V27V27.4C23.9625 27.4 25.8452 26.6209 27.233 25.233L26.9502 24.9502ZM22 27V26.6C20.2495 26.6 18.5703 25.905 17.3326 24.6674L17.0498 24.9502L16.767 25.233C18.1548 26.6209 20.0375 27.4 22 27.4V27ZM17.0498 24.9502L17.3327 24.6674C16.095 23.4297 15.4 21.7505 15.4 20H15H14.6C14.6 21.9625 15.3792 23.8452 16.767 25.233L17.0498 24.9502ZM15 20L15.4 20C15.4001 18.7802 15.885 17.6104 16.7477 16.7477L16.4648 16.4648L16.182 16.182C15.1694 17.1946 14.6001 18.5678 14.6 20L15 20ZM16.4648 16.4648L16.7477 16.7477C17.6104 15.885 18.7802 15.4 20 15.4V15V14.6C18.5678 14.6 17.1946 15.1695 16.182 16.182L16.4648 16.4648ZM20 15V15.4C21.2198 15.4 22.3896 15.885 23.2523 16.7477L23.5352 16.4648L23.818 16.182C22.8054 15.1695 21.4322 14.6 20 14.6V15ZM23.5352 16.4648L23.2523 16.7477C24.115 17.6104 24.5999 18.7802 24.6 20L25 20L25.4 20C25.3999 18.5678 24.8306 17.1946 23.818 16.182L23.5352 16.4648ZM25 20H24.6C24.6 20.6894 24.3259 21.3506 23.8382 21.8383L24.1211 22.1211L24.404 22.4039C25.0414 21.7664 25.4 20.9018 25.4 20H25ZM24.1211 22.1211L23.8383 21.8383C23.3506 22.3259 22.6895 22.6 22 22.6V23V23.4C22.9018 23.4 23.7664 23.0415 24.4039 22.4039L24.1211 22.1211ZM22 23V22.6C21.3105 22.6 20.6494 22.3259 20.1617 21.8383L19.8789 22.1211L19.5961 22.4039C20.2336 23.0415 21.0982 23.4 22 23.4V23ZM19.8789 22.1211L20.1618 21.8383C19.6741 21.3506 19.4 20.6894 19.4 20H19H18.6C18.6 20.9018 18.9586 21.7664 19.596 22.4039L19.8789 22.1211ZM19 20L19.4 20.0001C19.4 19.841 19.4633 19.6883 19.5758 19.5758L19.293 19.293L19.0101 19.0101C18.7477 19.2726 18.6001 19.6287 18.6 19.9999L19 20ZM19.293 19.293L19.5758 19.5759C19.6884 19.4633 19.8411 19.4 20 19.4V19V18.6C19.6286 18.6 19.2726 18.7478 19.0102 19.0101L19.293 19.293ZM20 19L20 19.4C20.1589 19.4 20.3116 19.4633 20.4242 19.5759L20.707 19.293L20.9898 19.0101C20.7274 18.7478 20.3714 18.6 20 18.6L20 19ZM20.707 19.293L20.4242 19.5758C20.5226 19.6743 20.5834 19.8036 20.5971 19.9409L20.9951 19.9014L21.3932 19.8618C21.3613 19.5413 21.2196 19.2398 20.9899 19.0101L20.707 19.293ZM20.9951 19.9014L20.5956 19.9211L20.6054 20.1184L21.0049 20.0986L21.4044 20.0789L21.3946 19.8816L20.9951 19.9014ZM21.0049 20.0986L20.6068 20.138C20.6385 20.4589 20.7805 20.7602 21.0101 20.9898L21.293 20.707L21.5759 20.4242C21.4772 20.3255 21.4165 20.1964 21.4029 20.0593L21.0049 20.0986ZM21.293 20.707L21.0101 20.9899C21.2726 21.2523 21.6286 21.4 22 21.4V21V20.6C21.841 20.6 21.6884 20.5368 21.5758 20.4242L21.293 20.707ZM22 21L22 21.4C22.3714 21.4 22.7274 21.2523 22.9899 20.9899L22.707 20.707L22.4242 20.4242C22.3116 20.5368 22.159 20.6 22 20.6L22 21ZM22.707 20.707L22.9899 20.9898C23.2522 20.7274 23.4 20.3714 23.4 20H23H22.6C22.6 20.1589 22.5367 20.3116 22.4241 20.4242L22.707 20.707ZM23 20L23.4 20C23.3999 19.0983 23.0414 18.2336 22.4039 17.5961L22.1211 17.8789L21.8383 18.1617C22.3258 18.6493 22.5999 19.3106 22.6 20L23 20ZM22.1211 17.8789L22.4039 17.596C21.7664 16.9586 20.9018 16.6 20 16.6V17V17.4C20.6894 17.4 21.3506 17.6741 21.8383 18.1618L22.1211 17.8789ZM20 17V16.6C19.0982 16.6 18.2336 16.9586 17.5961 17.596L17.8789 17.8789L18.1617 18.1618C18.6494 17.6741 19.3106 17.4 20 17.4V17ZM17.8789 17.8789L17.5961 17.5961C16.9586 18.2336 16.6001 19.0983 16.6 20L17 20L17.4 20C17.4001 19.3106 17.6742 18.6493 18.1617 18.1617L17.8789 17.8789ZM17 20H16.6C16.6 21.4322 17.1693 22.8063 18.182 23.819L18.4648 23.5361L18.7477 23.2533C17.885 22.3906 17.4 21.22 17.4 20H17ZM18.4648 23.5361L18.182 23.819C19.1947 24.8315 20.5681 25.4 22 25.4V25V24.6C20.7801 24.6 19.6103 24.1157 18.7477 23.2533L18.4648 23.5361ZM22 25V25.4C23.4319 25.4 24.8053 24.8315 25.818 23.819L25.5352 23.5361L25.2523 23.2533C24.3897 24.1157 23.2199 24.6 22 24.6V25ZM25.5352 23.5361L25.818 23.819C26.8307 22.8063 27.4 21.4322 27.4 20H27H26.6C26.6 21.22 26.115 22.3906 25.2523 23.2533L25.5352 23.5361ZM27 20L27.4 20C27.3999 18.0377 26.6205 16.1556 25.2331 14.768L24.9502 15.0508L24.6673 15.3336C25.9048 16.5712 26.5999 18.2498 26.6 20L27 20ZM24.9502 15.0508L25.233 14.7679C23.8453 13.3802 21.9627 12.6 20 12.6V13V13.4C21.7504 13.4 23.4296 14.0958 24.6674 15.3336L24.9502 15.0508ZM20 13V12.6C18.0373 12.6 16.1547 13.3802 14.767 14.7679L15.0498 15.0508L15.3326 15.3336C16.5704 14.0958 18.2496 13.4 20 13.4V13ZM15.0498 15.0508L14.7669 14.768C13.3795 16.1556 12.6001 18.0377 12.6 20L13 20L13.4 20C13.4001 18.2498 14.0952 16.5712 15.3327 15.3336L15.0498 15.0508ZM13 20H12.6C12.6 22.4929 13.5901 24.8842 15.3529 26.6471L15.6357 26.3643L15.9186 26.0814C14.3059 24.4686 13.4 22.2808 13.4 20H13ZM15.6357 26.3643L15.3529 26.6471C17.1158 28.41 19.507 29.4 22 29.4V29V28.6C19.7191 28.6 17.5314 27.6942 15.9186 26.0814L15.6357 26.3643ZM22 29V29.4C24.493 29.4 26.8842 28.41 28.6471 26.6471L28.3643 26.3643L28.0814 26.0814C26.4686 27.6942 24.2809 28.6 22 28.6V29ZM28.3643 26.3643L28.6471 26.6471C30.2998 24.9944 31.2736 22.7895 31.3888 20.4661L30.9893 20.4463L30.5897 20.4265C30.4844 22.5521 29.5934 24.5694 28.0814 26.0814L28.3643 26.3643ZM30.9893 20.4463L31.3891 20.4559L31.3999 20.0096L31 20L30.6001 19.9904L30.5894 20.4367L30.9893 20.4463ZM31 20L31.4 19.9995C31.3964 16.9773 30.1943 14.0798 28.0573 11.9427L27.7744 12.2256L27.4916 12.5084C29.4788 14.4957 30.5967 17.1901 30.6 20.0005L31 20ZM27.7744 12.2256L28.0573 11.9427C25.9202 9.80569 23.0227 8.60357 20.0005 8.6L20 9L19.9995 9.4C22.8099 9.40332 25.5043 10.5212 27.4916 12.5084L27.7744 12.2256Z" fill="#F0F1FF"/>
</svg>
