<svg width="24" height="24" viewBox="0 0 24 24" fill="none" xmlns="http://www.w3.org/2000/svg">
<path d="M23.1261 16.9222L21.437 9.54727C21.2884 8.89875 20.6402 8.49169 19.9914 8.64042L18.6339 8.95134C17.9854 9.09989 17.5786 9.74841 17.7271 10.3969L17.785 10.6495L17.1621 10.9206C16.705 11.1194 16.2267 11.0921 15.7789 10.842C15.3668 10.6117 15.0014 10.3974 14.679 10.2083C13.2086 9.34561 12.3987 8.8703 11.2012 9.31814C10.8545 9.44775 10.5059 9.70936 10.1447 10.0556H5.45767C5.42636 9.53466 5.05661 9.07359 4.52279 8.9513L3.16529 8.64038C2.51678 8.49178 1.86826 8.89866 1.71972 9.54722L0.0306697 16.9222C-0.041049 17.2354 0.0139822 17.5586 0.185592 17.8322C0.357248 18.1058 0.624248 18.2961 0.937467 18.3678L2.29497 18.6787C2.38464 18.6992 2.47506 18.7094 2.56497 18.7094C2.78912 18.7094 3.00972 18.6463 3.205 18.5238C3.47861 18.3521 3.66883 18.0851 3.74054 17.7719L3.74481 17.7532L8.77328 22.7254C9.05106 23.0033 9.42161 23.1562 9.81672 23.1562H9.81695C10.2121 23.1562 10.5827 23.0031 10.8605 22.7253C11.0696 22.5163 11.208 22.2547 11.2637 21.9696L11.9204 22.6263C12.1982 22.9042 12.5687 23.0572 12.9639 23.0572H12.9641C13.3592 23.0571 13.7298 22.9041 14.0077 22.6262C14.2167 22.4172 14.3551 22.1557 14.4108 21.8706L14.4579 21.9177C14.7356 22.1956 15.1062 22.3485 15.5013 22.3485H15.5016C15.8967 22.3485 16.2673 22.1954 16.5452 21.9176C16.8229 21.6398 16.976 21.2692 16.976 20.8741C16.976 20.7776 16.9669 20.6826 16.949 20.59C16.9625 20.5903 16.9759 20.5905 16.9894 20.5905H16.9896C17.3847 20.5905 17.7553 20.4374 18.0332 20.1596C18.311 19.8818 18.464 19.5112 18.464 19.1161C18.464 18.9556 18.4384 18.7993 18.3898 18.6515L19.5639 18.1333C19.6599 18.2896 19.7913 18.4232 19.9517 18.5238C20.1471 18.6463 20.3676 18.7094 20.5918 18.7094C20.6816 18.7094 20.7722 18.6992 20.8618 18.6787L22.2192 18.3678C22.5325 18.2961 22.7994 18.1058 22.9712 17.8322C23.1428 17.5586 23.1978 17.2354 23.1261 16.9222ZM3.10084 17.6254C3.06826 17.7677 2.9814 17.8894 2.85625 17.9678C2.73109 18.0463 2.58381 18.0717 2.44145 18.039L1.08395 17.7281C0.941592 17.6955 0.819998 17.6086 0.741482 17.4835C0.662967 17.3584 0.637701 17.2111 0.670279 17.0687L2.35947 9.69375C2.41783 9.43908 2.64512 9.26616 2.89595 9.26616C2.9365 9.26616 2.9777 9.2707 3.01886 9.28012L4.37631 9.59105C4.67214 9.65878 4.85772 9.95461 4.78994 10.2504L3.10084 17.6254ZM17.5692 19.6955C17.4152 19.8494 17.2094 19.9342 16.9895 19.9342C16.9895 19.9342 16.9894 19.9342 16.9894 19.9342C16.7696 19.9342 16.5638 19.8495 16.41 19.6957L13.1619 16.4474C13.0338 16.3193 12.826 16.3193 12.6979 16.4474C12.5698 16.5755 12.5697 16.7833 12.6979 16.9114C12.6979 16.9114 16.0666 20.28 16.0811 20.2945C16.235 20.4483 16.3197 20.6542 16.3197 20.874C16.3197 21.0938 16.2349 21.2996 16.081 21.4535C15.9271 21.6074 15.7213 21.6922 15.5014 21.6922C15.5013 21.6922 15.5013 21.6922 15.5012 21.6922C15.2815 21.6922 15.0757 21.6075 14.9219 21.4537L11.4278 17.9594C11.2997 17.8313 11.092 17.8313 10.9638 17.9594C10.8356 18.0875 10.8356 18.2953 10.9638 18.4234L13.5567 21.0164C13.7023 21.1687 13.7822 21.369 13.7822 21.5826C13.7822 21.8024 13.6974 22.0082 13.5436 22.1621C13.3896 22.316 13.1837 22.4008 12.9639 22.4008C12.9639 22.4008 12.9639 22.4008 12.9638 22.4008C12.744 22.4008 12.5382 22.3161 12.3844 22.1622L9.54709 19.3248C9.41898 19.1967 9.21119 19.1967 9.08308 19.3248C8.95492 19.4529 8.95492 19.6607 9.08308 19.7888L10.4056 21.1114C10.5537 21.2642 10.6351 21.4662 10.6351 21.6817C10.6351 21.9015 10.5503 22.1073 10.3964 22.2611C10.2425 22.4151 10.0367 22.4999 9.81676 22.4999C9.81672 22.4999 9.81672 22.4999 9.81667 22.4999C9.59687 22.4999 9.39109 22.4152 9.23594 22.26L3.91712 17.0007L5.35745 10.7119H9.52117C9.29153 10.9706 9.05495 11.2507 8.809 11.542C8.14408 12.3294 7.45656 13.1436 6.70844 13.7709C6.56992 13.8871 6.5514 14.0934 6.66709 14.2323C7.34894 15.0513 8.15045 15.3923 9.04909 15.2465C9.83416 15.1189 10.6105 14.6387 11.3325 14.1387C11.9722 13.6958 12.8033 13.7706 13.3535 14.3209L17.5691 18.5365C17.723 18.6904 17.8078 18.8962 17.8078 19.1161C17.8078 19.3358 17.723 19.5417 17.5692 19.6955ZM18.0332 18.0724L13.8176 13.8568C13.0517 13.0909 11.8495 12.9825 10.959 13.5991C9.4375 14.6527 8.38965 15.0441 7.38751 14.0492C8.08173 13.4205 8.73053 12.6521 9.31047 11.9654C10.0972 11.0337 10.8402 10.1538 11.431 9.93286C12.336 9.59456 12.9247 9.93984 14.347 10.7743C14.6722 10.965 15.0407 11.1813 15.4589 11.415C16.0834 11.7638 16.7813 11.8019 17.424 11.5223L17.9341 11.3004L19.3557 17.5078L18.046 18.0859C18.0417 18.0814 18.0376 18.0768 18.0332 18.0724ZM22.4152 17.4834C22.3367 17.6086 22.2151 17.6955 22.0727 17.7281L20.7153 18.039C20.573 18.0716 20.4256 18.0463 20.3005 17.9678C20.1753 17.8893 20.0885 17.7677 20.0559 17.6253L18.3668 10.2504C18.2991 9.95456 18.4846 9.65878 18.7804 9.59105L20.1379 9.28012C20.4337 9.21248 20.7295 9.39802 20.7973 9.69375L22.4864 17.0687C22.519 17.211 22.4937 17.3584 22.4152 17.4834ZM9.82919 6.73523C10.2454 7.11122 10.6757 7.49991 11.1066 7.91897C11.1702 7.98089 11.2528 8.01188 11.3353 8.01188C11.4178 8.01188 11.5004 7.98089 11.5641 7.91897C11.9949 7.49995 12.4253 7.11122 12.8415 6.73523C14.4258 5.30414 15.7941 4.06819 15.7941 2.33691C15.7942 1.04831 14.7205 0 13.4007 0C12.386 0 11.8 0.452812 11.3353 1.17328C10.8707 0.452812 10.2847 0 9.27001 0C7.95025 0 6.87653 1.04831 6.87653 2.33691C6.87658 4.06814 8.24486 5.30409 9.82919 6.73523ZM9.27001 0.65625C10.0854 0.65625 10.5329 0.991453 11.0435 1.98469C11.0998 2.09405 11.2124 2.16281 11.3354 2.16281C11.4583 2.16281 11.571 2.09405 11.6272 1.98469C12.1378 0.991453 12.5853 0.65625 13.4007 0.65625C14.3586 0.65625 15.1379 1.41019 15.1379 2.33691C15.1379 3.77663 13.9304 4.86731 12.4016 6.24825C12.0541 6.56213 11.6969 6.88481 11.3353 7.22859C10.9738 6.88481 10.6165 6.56213 10.269 6.24825C8.74028 4.86736 7.53273 3.77658 7.53273 2.33691C7.53283 1.41019 8.31212 0.65625 9.27001 0.65625Z" fill="#303030"/>
</svg>
