<svg width="10" height="16" viewBox="0 0 10 16" fill="none" xmlns="http://www.w3.org/2000/svg">
<path d="M2.40291 11.0821C2.40291 10.5628 2.46764 10.0881 2.59709 9.65786C2.72654 9.22763 2.93689 8.83449 3.22816 8.47844C3.51942 8.10756 3.91586 7.78118 4.41748 7.4993C4.69256 7.35095 5.01618 7.18776 5.38835 7.00974C5.76052 6.81688 6.11651 6.59434 6.45631 6.34214C6.79612 6.08994 7.07929 5.79323 7.30583 5.45202C7.54854 5.1108 7.6699 4.71025 7.6699 4.25035C7.6699 3.76078 7.54045 3.3528 7.28155 3.02643C7.02265 2.68521 6.69094 2.43301 6.28641 2.26982C5.89806 2.09179 5.46926 2.00278 5 2.00278C4.49838 2.00278 4.03722 2.09921 3.61651 2.29207C3.19579 2.48493 2.83172 2.72972 2.52427 3.02643C2.21683 3.32313 1.95793 3.63468 1.74757 3.96106L0 2.87065C0.291262 2.2624 0.695793 1.74316 1.21359 1.31293C1.73139 0.882708 2.32201 0.556329 2.98544 0.333797C3.64887 0.111266 4.34466 0 5.07282 0C5.67152 0 6.26214 0.0890127 6.84466 0.267038C7.44337 0.430227 7.97735 0.689847 8.4466 1.0459C8.91586 1.40195 9.28803 1.85443 9.56311 2.40334C9.85437 2.93741 10 3.58275 10 4.33936C10 4.8586 9.92718 5.31108 9.78155 5.6968C9.6521 6.06769 9.45793 6.40148 9.19903 6.69819C8.94013 6.9949 8.64078 7.26194 8.30097 7.4993C7.96117 7.72184 7.589 7.93695 7.18447 8.14465C6.77994 8.36718 6.3835 8.59713 5.99515 8.83449C5.6068 9.05702 5.28317 9.3389 5.02427 9.68011C4.76537 10.0213 4.63592 10.4886 4.63592 11.0821H2.40291ZM2.47573 16V13.1961H4.68447V16H2.47573Z" fill="#FFC633"/>
</svg>
